<?xml version="1.0" encoding="UTF-8"?>
<svg id="katman_2" data-name="katman 2" xmlns="http://www.w3.org/2000/svg" xmlns:xlink="http://www.w3.org/1999/xlink" viewBox="0 0 434.01 77.36">
  <defs>
    <style>
      .cls-1 {
        fill: url(#Adsız_degrade_68);
      }

      .cls-2 {
        fill: url(#Adsız_degrade_71);
      }

      .cls-3 {
        fill: #e6007e;
      }

      .cls-4 {
        fill: #ededed;
      }
    </style>
    <linearGradient id="Adsız_degrade_68" data-name="Adsız degrade 68" x1="49.59" y1="44.41" x2="-21.51" y2="17.62" gradientUnits="userSpaceOnUse">
      <stop offset=".12" stop-color="#880154" stop-opacity=".95"/>
      <stop offset=".33" stop-color="#c6145e" stop-opacity=".97"/>
      <stop offset=".62" stop-color="#be0c76"/>
      <stop offset="1" stop-color="#880753"/>
    </linearGradient>
    <linearGradient id="Adsız_degrade_71" data-name="Adsız degrade 71" x1="50.81" y1="72.66" x2="50.14" y2="-26.43" gradientUnits="userSpaceOnUse">
      <stop offset="0" stop-color="#880154" stop-opacity=".95"/>
      <stop offset=".33" stop-color="#c6145e" stop-opacity=".97"/>
      <stop offset=".62" stop-color="#be0c76"/>
      <stop offset="1" stop-color="#880753"/>
    </linearGradient>
  </defs>
  <g id="katman_1" data-name="katman 1">
    <g>
      <path class="cls-4" d="M93.62,77.27h14.38c1.55,0,2.82-.35,3.81-1.06.99-.71,1.69-1.64,2.11-2.81l14.91-41.32c.67-1.8,1.35-3.76,2.04-5.88.69-2.12,1.33-4.34,1.93-6.67.49,2.33,1.07,4.56,1.72,6.67.65,2.12,1.29,4.08,1.93,5.88l14.8,41.32c.35.99,1.04,1.88,2.06,2.67,1.02.8,2.27,1.19,3.75,1.19h14.48L140.66.09h-16.17l-30.87,77.17Z"/>
      <path class="cls-4" d="M264.25,77.19h-12V18.15c0-9.93,8.05-17.97,17.97-17.97h0v71.04c0,3.3-2.68,5.98-5.98,5.98Z"/>
      <path class="cls-4" d="M348.08.17v13.74h-38.96v17.97h32.29v13.21h-32.29v18.34h38.96v13.74h-50.95c-3.3,0-5.98-2.68-5.98-5.98V.17h56.93Z"/>
      <path class="cls-4" d="M378.14.28c.53.07,1,.2,1.43.4.42.19.83.47,1.22.82.39.35.83.83,1.32,1.43l36.58,46.25c-.14-1.48-.25-2.91-.32-4.31-.07-1.39-.11-2.7-.11-3.94V.17h15.75v77.01h-9.3c-1.37,0-2.54-.21-3.49-.63-.95-.42-1.87-1.2-2.75-2.32l-36.31-45.88c.11,1.34.19,2.65.26,3.94.07,1.29.11,2.49.11,3.62v41.28h-15.75V.17h9.41c.77,0,1.43.04,1.96.11Z"/>
      <path class="cls-4" d="M214.76,47.56c2.77-1.81,4.49-3.31,6.41-4.79,1.92-1.48,4.84-4.49,6.16-6.38,1.32-1.89,2.32-3.94,2.99-6.16.67-2.22,1-4.58,1-7.08,0-3.28-.56-6.31-1.69-9.09-1.13-2.78-2.93-5.2-5.42-7.24-2.48-2.04-5.93-3.78-9.86-4.92-3.93-1.15-8.68-1.72-14.25-1.72h-36s5.36,13.37,5.36,13.37h30.64c4.62,0,8.03.95,10.23,2.85,2.2,1.9,3.3,4.55,3.3,7.93,0,1.69-.25,3.27-.74,4.73-.49,1.46-1.29,2.74-2.38,3.83-1.09,1.09-2.49,1.95-4.2,2.56-1.71.62-3.78.92-6.21.92h-21.51s4.94,12.32,4.94,12.32h7.2c1.37,0,2.44.21,3.2.63.76.42,1.42,1.13,1.98,2.12l12.79,22.36c1.3,2.26,3.45,3.38,6.45,3.38h16.17"/>
      <g>
        <path class="cls-3" d="M101.14,0h-35.14c-2.99,0-5.74,1.76-6.99,4.46-.02.03-.04.07-.06.11l-.03.07c-.12.26-.22.52-.29.77l-27.11,71.24c-.06.16-.04.34.06.49.1.14.26.23.43.23h37.63c.21,0,.41-.13.49-.33L101.6.77c.04-.07.06-.16.06-.24,0-.29-.24-.53-.52-.53ZM34.25,73.95s0,0,0,.01h0,0ZM33.85,76.84L60.27,6.76c.06-.19.13-.38.22-.59l.07-.15c1.06-2.37,3.41-3.9,5.98-3.9h32.41l-30.15,72.95c-.07.17,1,1.75.91,1.9l-14.72-.12h-21.14ZM32.51,76.23h0s0,0,0,0h0ZM33.57,75.32c.01.06.02.13.03.21h-.11l.08-.21Z"/>
        <g>
          <path class="cls-1" d="M31.9,77.05c-.09,0-.16-.05-.19-.13L.23.61c-.03-.07-.02-.14.02-.2.04-.06.1-.09.17-.09h35.13c3.26,0,6.1,2.09,7.07,5.2l27.11,71.24c.02.07.02.14-.02.19-.04.06-.1.09-.17.09H31.9Z"/>
          <path class="cls-3" d="M35.55.53c3.23,0,5.96,2.13,6.87,5.05l27.11,71.26H31.9L.42.53h35.13M35.55.11H.42C.28.11.15.18.07.29,0,.41-.02.56.03.69l31.48,76.31c.07.16.22.26.39.26h37.63c.14,0,.27-.07.35-.18.08-.11.1-.26.05-.39L42.82,5.43c-.99-3.18-3.91-5.32-7.26-5.32h0Z"/>
        </g>
        <g>
          <path class="cls-2" d="M32.02,77.05c-.07,0-.13-.03-.17-.09-.04-.06-.05-.13-.02-.19l18.76-49.3c.03-.08.11-.14.2-.14h0c.09,0,.17.05.2.14l18.87,49.3c.02.07.02.14-.02.2-.04.06-.1.09-.17.09h-37.63Z"/>
          <path class="cls-3" d="M50.78,27.54l18.87,49.3h-37.63l18.76-49.3M50.78,27.12h0c-.17,0,0-1.07-.06-.91l-19.1,50.48c-.05.13-.03.28.05.39.08.11.21.18.35.18h37.63c.14,0,.27-.07.35-.18.08-.11.1-.26.05-.39l-18.87-49.3c-.06-.16-.22-.27-.39-.27h0Z"/>
        </g>
      </g>
    </g>
  </g>
</svg>