<?xml version="1.0" encoding="UTF-8"?>
<svg id="katman_2" xmlns="http://www.w3.org/2000/svg" xmlns:xlink="http://www.w3.org/1999/xlink" version="1.1" viewBox="0 0 179.7 138.2">
  <!-- Generator: Adobe Illustrator 29.2.1, SVG Export Plug-In . SVG Version: 2.1.0 Build 116)  -->
  <defs>
    <style>
      .st0 {
        fill: url(#Adsız_degrade_2);
      }

      .st1 {
        fill: url(#Adsız_degrade);
      }

      .st2 {
        fill: #e6007e;
      }
    </style>
    <linearGradient id="Adsız_degrade" data-name="Adsız degrade" x1="87.7" y1="60.8" x2="-38" y2="108.1" gradientTransform="translate(0 139.3) scale(1 -1)" gradientUnits="userSpaceOnUse">
      <stop offset=".1" stop-color="#880154" stop-opacity=".9"/>
      <stop offset=".3" stop-color="#c6145e" stop-opacity="1"/>
      <stop offset=".6" stop-color="#be0c76"/>
      <stop offset="1" stop-color="#880753"/>
    </linearGradient>
    <linearGradient id="Adsız_degrade_2" data-name="Adsız degrade 2" x1="89.8" y1="10.8" x2="88.6" y2="186" gradientTransform="translate(0 139.3) scale(1 -1)" gradientUnits="userSpaceOnUse">
      <stop offset="0" stop-color="#880154" stop-opacity=".9"/>
      <stop offset=".3" stop-color="#c6145e" stop-opacity="1"/>
      <stop offset=".6" stop-color="#be0c76"/>
      <stop offset="1" stop-color="#880753"/>
    </linearGradient>
  </defs>
  <g id="katman_1">
    <g>
      <path class="st2" d="M178.8,0h-62.1C111.4,0,106.6,3.1,104.3,7.9c0,0,0,.1,0,.2h0c-.2.6-.4,1.1-.5,1.5l-47.9,126c-.1.3,0,.6,0,.9s.5.4.8.4h66.5c.4,0,.7-.2.9-.6L179.6,1.4c0-.1.1-.3.1-.4C179.7.4,179.3,0,178.8,0ZM60.5,130.7h0s0,0,0,0h0s0,0,0,0ZM59.8,135.8L106.6,11.9c0-.3.2-.7.4-1.1v-.3c2-4.2,6.2-6.9,10.7-6.9h57.3l-53.3,129c-.1.3,1.8,3.1,1.6,3.4l-26-.2h-37.4ZM57.5,134.8h0s0,0,0,0h0ZM59.3,133.1c0,.1,0,.2,0,.4h-.2v-.4Z"/>
      <g>
        <path class="st1" d="M56.4,136.2c-.2,0-.3,0-.3-.2L.4,1.1c0-.1,0-.2,0-.4,0-.1.2-.2.3-.2h62.1c5.8,0,10.8,3.7,12.5,9.2l47.9,125.9c0,.1,0,.2,0,.3,0,.1-.2.2-.3.2H56.4Z"/>
        <path class="st2" d="M62.8.9c5.7,0,10.5,3.8,12.1,8.9l47.9,126H56.4L.8.9h62.1M62.8.2H.8c-.2,0-.5.1-.6.3C0,.7,0,1,0,1.2l55.7,134.9c.1.3.4.5.7.5h66.5c.2,0,.5-.1.6-.3.1-.2.2-.5,0-.7L75.7,9.6C73.9,4,68.8.2,62.8.2h0Z"/>
      </g>
      <g>
        <path class="st0" d="M56.6,136.2c-.1,0-.2,0-.3-.2s0-.2,0-.3l33.2-87.2c0-.1.2-.2.3-.2h0c.2,0,.3,0,.3.2l33.4,87.2c0,.1,0,.2,0,.4,0,.1-.2.2-.3.2H56.6Z"/>
        <path class="st2" d="M89.8,48.7l33.4,87.1H56.6l33.2-87.2M89.8,47.9h0c-.3,0,0-1.9,0-1.6l-33.8,89.2c0,.2,0,.5,0,.7.1.2.4.3.6.3h66.5c.2,0,.5-.1.6-.3.1-.2.2-.5,0-.7l-33.4-87.2c-.1-.3-.4-.5-.7-.5h0Z"/>
      </g>
    </g>
  </g>
</svg>